<svg width="41" height="38" viewBox="0 0 41 38" fill="none" xmlns="http://www.w3.org/2000/svg">
<path d="M41 21.7669C40.2429 25.0702 38.7028 28.1386 36.5117 30.7091C34.3207 33.2797 31.5442 35.2757 28.4205 36.5253C25.2969 37.7748 21.9194 38.2406 18.578 37.8832C15.2365 37.5258 12.031 36.3557 9.23634 34.4732C6.44173 32.5906 4.14156 30.0519 2.53327 27.0749C0.924987 24.098 0.0566132 20.772 0.00267612 17.3819C-0.051261 13.9918 0.710848 10.639 2.2236 7.6115C3.73636 4.584 5.95458 1.9721 8.68786 0C7.94504 3.19828 7.96504 6.52869 8.74625 9.71765C10.0772 15.1085 13.4684 19.749 18.1791 22.6251C22.8899 25.5011 28.5372 26.3788 33.8873 25.0669C36.4459 24.4368 38.8606 23.3167 41 21.7669Z" fill="#2B2B2B"/>
</svg>
